<svg width="19" height="18" viewBox="0 0 19 18" fill="none" xmlns="http://www.w3.org/2000/svg">
<path fill-rule="evenodd" clip-rule="evenodd" d="M16.7037 12.25L14.1637 11.96C13.5537 11.89 12.9537 12.1 12.5237 12.53L10.6837 14.37C7.85367 12.93 5.53367 10.62 4.09367 7.78L5.94367 5.93C6.37367 5.5 6.58367 4.9 6.51367 4.29L6.22367 1.77C6.10367 0.76 5.25367 0 4.23367 0H2.50367C1.37367 0 0.433673 0.94 0.503673 2.07C1.03367 10.61 7.86367 17.43 16.3937 17.96C17.5237 18.03 18.4637 17.09 18.4637 15.96V14.23C18.4737 13.22 17.7137 12.37 16.7037 12.25Z" fill="white"/>
</svg>
